<svg fill="none" height="635" viewBox="0 0 1547 635" width="1547" xmlns="http://www.w3.org/2000/svg" xmlns:xlink="http://www.w3.org/1999/xlink"><linearGradient id="a"><stop offset="0" stop-color="#fd470d"/><stop offset=".395833" stop-color="#fe2875" stop-opacity=".9"/><stop offset="1" stop-color="#0047fd" stop-opacity=".7"/></linearGradient><linearGradient id="b" gradientUnits="userSpaceOnUse" x1="500.299" x2="1387.16" xlink:href="#a" y1="1292.3" y2="464.079"/><linearGradient id="c" gradientUnits="userSpaceOnUse" x1="512.194" x2="998.436" xlink:href="#a" y1="1245.03" y2="328.934"/><linearGradient id="d" gradientUnits="userSpaceOnUse" x1="508.649" x2="646.683" xlink:href="#a" y1="1203.51" y2="327.881"/><linearGradient id="e" gradientUnits="userSpaceOnUse" x1="494.232" x2="362.125" xlink:href="#a" y1="1170.95" y2="424.91"/><linearGradient id="f" gradientUnits="userSpaceOnUse" x1="473.524" x2="159.171" xlink:href="#a" y1="1148.65" y2="582.511"/><linearGradient id="g" gradientUnits="userSpaceOnUse" x1="450.579" x2="39.0003" xlink:href="#a" y1="1136.39" y2="766.347"/><clipPath id="h"><path d="m0 0h2159.39v1632.83h-2159.39z" transform="matrix(-.629885 -.776688 -.776688 .629885 2040.36 1207.17)"/></clipPath><mask id="i" height="635" maskUnits="userSpaceOnUse" width="1547" x="0" y="0"><path d="m0 0h1547v635h-1547z" fill="#d9d9d9"/></mask><g mask="url(#i)"><g clip-path="url(#h)"><path d="m744.669 1554.27-514.502-550.93c-86.651-92.791-81.678-238.254 11.109-324.905l550.933-514.502c92.786-86.6514 238.251-81.6781 324.901 11.109l514.5 550.932c86.65 92.787 81.68 238.251-11.11 324.906l-550.93 514.5c-92.786 86.65-238.249 81.68-324.901-11.11z" fill="url(#b)"/><path d="m782.576 1388.74-569.094-302.07c-95.844-50.87-132.301-169.804-81.429-265.648l302.062-569.095c50.872-95.843 169.808-132.3 265.652-81.429l569.093 302.062c95.84 50.872 132.3 169.809 81.43 265.652l-302.06 569.098c-50.874 95.84-169.811 132.3-265.654 81.43z" fill="url(#c)"/><path d="m767.141 1244.41-543.955-85.75c-91.611-14.44-154.17-100.41-139.7284-192.024l85.7484-543.955c14.442-91.611 100.415-154.17 192.027-139.728l543.954 85.748c91.612 14.442 154.173 100.415 139.733 192.027l-85.752 543.952c-14.442 91.61-100.415 154.17-192.027 139.73z" fill="url(#d)"/><path d="m714.514 1132.07-463.46 82.07c-78.05 13.82-152.5272-38.25-166.3481-116.3l-82.06808-463.459c-13.82092-78.05 38.24758-152.527 116.29818-166.348l463.46-82.068c78.051-13.821 152.528 38.247 166.349 116.298l82.068 463.461c13.821 78.046-38.248 152.526-116.299 166.346z" fill="url(#e)"/><path d="m640.716 1055.94-351.687 195.27c-59.233 32.89-133.913 11.54-166.803-47.69l-195.2769-351.691c-32.8901-59.233-11.5342-133.913 47.6987-166.803l351.6862-195.277c59.233-32.89 133.913-11.534 166.803 47.699l195.277 351.686c32.89 59.233 11.535 133.916-47.698 166.806z" fill="url(#f)"/><path d="m559.898 1014.94-229.88 255.68c-38.714 43.06-105.006 46.58-148.066 7.87l-255.6808-229.88c-43.0602-38.71-46.5822-105.007-7.8677-148.067l229.8795-255.68c38.715-43.06 105.006-46.582 148.066-7.868l255.681 229.88c43.06 38.715 46.583 105.006 7.868 148.065z" fill="url(#g)"/></g></g></svg>